# xmcd
#
# Track frame offsets:
#  150
#  23745
#  43541
#  65205
#  88113
#  110868
#  133490
#  151677
#  170806
#
# Disc length: 2540 seconds
#
# Revision: 0
# Processed by: cddbd v1.5.1PL0 Copyright (c) Steve Scherf et al.
# Submitted via: AltoMP3_Maker 3.0
#
DISCID=8109ea09
DTITLE=Charlie Cinelli - Charlie Cinelli
DYEAR=1900
DGENRE=
TTITLE0=Uragano
TTITLE1=Un giorno normale
TTITLE2=Ahi ahi ahi
TTITLE3=Che bambina
TTITLE4=Via
TTITLE5=Tutto per lei
TTITLE6=Vedi Anna
TTITLE7=Fare a meno di te
TTITLE8=Il tempio
EXTD=
EXTT0=
EXTT1=
EXTT2=
EXTT3=
EXTT4=
EXTT5=
EXTT6=
EXTT7=
EXTT8=
PLAYORDER=
